<?xml version="1.0" ?>
<!-- Uploaded to: SVG Repo, www.svgrepo.com, Generator: SVG Repo Mixer Tools -->
<svg width="800px" height="800px" viewBox="0 0 24 24" version="1.1" xml:space="preserve" xmlns="http://www.w3.org/2000/svg" xmlns:xlink="http://www.w3.org/1999/xlink">
<style type="text/css">
	.st0{opacity:0.2;fill:none;stroke:#000000;stroke-width:5.000000e-02;stroke-miterlimit:10;}
	.st1{fill:none;stroke:#000000;stroke-width:2;stroke-linecap:round;stroke-linejoin:round;stroke-miterlimit:10;}
</style>
<g id="Layer_1"/>
<g id="Layer_2">
<g>
<path d="M11,15H6c-2.2,0-4-1.8-4-4s1.8-4,4-4h1.1C7.6,4.7,9.6,3,12,3s4.4,1.7,4.9,4H18c2.2,0,4,1.8,4,4c0,0.6-0.4,1-1,1    s-1-0.4-1-1c0-1.1-0.9-2-2-2h-2c-0.6,0-1-0.4-1-1c0-1.7-1.3-3-3-3S9,6.3,9,8c0,0.6-0.4,1-1,1H6c-1.1,0-2,0.9-2,2s0.9,2,2,2h5    c0.6,0,1,0.4,1,1S11.6,15,11,15z"/>
</g>
<g>
<path d="M21,15h-5.5c-1.4,0-2.5-1.1-2.5-2.5s1.1-2.5,2.5-2.5c0.6,0,1,0.4,1,1s-0.4,1-1,1c-0.3,0-0.5,0.2-0.5,0.5s0.2,0.5,0.5,0.5    H21c0.6,0,1,0.4,1,1S21.6,15,21,15z"/>
</g>
<g>
<path d="M12.5,21c-1.4,0-2.5-1.1-2.5-2.5s1.1-2.5,2.5-2.5H21c0.6,0,1,0.4,1,1s-0.4,1-1,1h-8.5c-0.3,0-0.5,0.2-0.5,0.5    s0.2,0.5,0.5,0.5c0.6,0,1,0.4,1,1S13.1,21,12.5,21z"/>
</g>
</g>
</svg>